<?xml version="1.0" standalone="no"?><!DOCTYPE svg PUBLIC "-//W3C//DTD SVG 1.1//EN" "http://www.w3.org/Graphics/SVG/1.1/DTD/svg11.dtd"><svg t="1631275197890" class="icon" viewBox="0 0 1024 1024" version="1.1" xmlns="http://www.w3.org/2000/svg" p-id="3133" xmlns:xlink="http://www.w3.org/1999/xlink" width="200" height="200"><defs><style type="text/css"></style></defs><path d="M856.73 796.7h-690c-57.9 0-105-47.1-105-105v-360c0-57.9 47.1-105 105-105h690c57.9 0 105 47.1 105 105v360c0 57.89-47.1 105-105 105z m-690-500.01c-19.3 0-35 15.7-35 35v360c0 19.3 15.7 35 35 35h690c19.3 0 35-15.7 35-35v-360c0-19.3-15.7-35-35-35h-690z" p-id="3134" fill="#d81e06"></path><path d="M233.16 431.69H790.3v160H233.16z" p-id="3135" fill="#d81e06"></path></svg>