<?xml version="1.0" standalone="no"?><!DOCTYPE svg PUBLIC "-//W3C//DTD SVG 1.1//EN" "http://www.w3.org/Graphics/SVG/1.1/DTD/svg11.dtd"><svg t="1631274299638" class="icon" viewBox="0 0 1024 1024" version="1.1" xmlns="http://www.w3.org/2000/svg" p-id="2348" data-spm-anchor-id="a313x.7781069.0.i2" xmlns:xlink="http://www.w3.org/1999/xlink" width="200" height="200"><defs><style type="text/css"></style></defs><path d="M215.68 204.8H138.24c-4.48 0-7.68-3.2-7.68-7.68v-30.08c0-4.48 3.2-7.68 7.68-7.68h77.44c4.48 0 7.68 3.2 7.68 7.68v30.08c-0.64 3.84-3.84 7.68-7.68 7.68z m-69.76-15.36h62.08v-15.36h-62.08v15.36z" fill="#00ABE0" p-id="2349"></path><path d="M105.6 440.96c-9.6 0-17.92-7.68-17.92-17.92 0-9.6 7.68-17.92 17.92-17.92 9.6 0 17.92 7.68 17.92 17.92-0.64 9.6-8.32 17.92-17.92 17.92z m0-20.48c-1.28 0-2.56 1.28-2.56 2.56s1.28 2.56 2.56 2.56 2.56-1.28 2.56-2.56-1.28-2.56-2.56-2.56zM166.4 440.96c-9.6 0-17.92-7.68-17.92-17.92s7.68-17.92 17.92-17.92 17.92 7.68 17.92 17.92-8.32 17.92-17.92 17.92z m0-20.48c-1.28 0-2.56 1.28-2.56 2.56s1.28 2.56 2.56 2.56 2.56-1.28 2.56-2.56-1.28-2.56-2.56-2.56zM918.4 440.96c-9.6 0-17.92-7.68-17.92-17.92 0-9.6 7.68-17.92 17.92-17.92 9.6 0 17.92 7.68 17.92 17.92 0 9.6-7.68 17.92-17.92 17.92z m0-20.48c-1.28 0-2.56 1.28-2.56 2.56s1.28 2.56 2.56 2.56 2.56-1.28 2.56-2.56-0.64-2.56-2.56-2.56zM857.6 440.96c-9.6 0-17.92-7.68-17.92-17.92s7.68-17.92 17.92-17.92c9.6 0 17.92 7.68 17.92 17.92s-8.32 17.92-17.92 17.92z m0-20.48c-1.28 0-2.56 1.28-2.56 2.56s1.28 2.56 2.56 2.56 2.56-1.28 2.56-2.56-1.28-2.56-2.56-2.56z" fill="#ffffff" p-id="2350" data-spm-anchor-id="a313x.7781069.0.i5" class="selected"></path><path d="M966.4 857.6H57.6c-4.48 0-7.68-3.2-7.68-7.68V375.04c0-4.48 3.2-7.68 7.68-7.68h908.8c4.48 0 7.68 3.2 7.68 7.68v474.24c0 4.48-3.2 8.32-7.68 8.32z m-901.12-15.36h893.44V382.72H65.28v459.52z" fill="#ffffff" p-id="2351" data-spm-anchor-id="a313x.7781069.0.i1" class="selected"></path><path d="M931.84 881.92H92.16c-17.92 0-32-14.72-32-32 0-4.48 3.2-7.68 7.68-7.68h889.6c4.48 0 7.68 3.2 7.68 7.68-0.64 17.92-15.36 32-33.28 32zM76.16 857.6c2.56 5.76 8.96 9.6 15.36 9.6h840.32c7.04 0 12.8-3.84 15.36-9.6H76.16zM956.8 382.72h-889.6c-4.48 0-7.68-3.2-7.68-7.68v-128c0-8.32 3.2-16.64 9.6-23.04s14.08-9.6 23.04-9.6h840.32c17.92 0 32 14.72 32 32v128c0 5.12-3.2 8.32-7.68 8.32zM74.88 368h874.88V247.04c0-9.6-7.68-17.28-17.28-17.28H92.16a17.4848 17.4848 0 0 0-17.28 17.28v120.96z" fill="#ffffff" p-id="2352" data-spm-anchor-id="a313x.7781069.0.i0" class="selected"></path><path d="M918.4 229.12H761.6c-4.48 0-7.68-3.2-7.68-7.68v-24.32c0-4.48 3.2-7.68 7.68-7.68h156.8c4.48 0 7.68 3.2 7.68 7.68v24.32c0 4.48-3.84 7.68-7.68 7.68z m-149.12-14.72h141.44v-8.96h-141.44v8.96zM249.6 229.76H104.96c-4.48 0-7.68-3.2-7.68-7.68v-25.6c0-4.48 3.2-7.68 7.68-7.68H249.6c4.48 0 7.68 3.2 7.68 7.68v25.6c0 4.48-3.2 7.68-7.68 7.68z m-137.6-14.72h129.92V204.8H112v10.24zM545.28 813.44c-110.72 0-200.32-89.6-200.32-200.32s89.6-200.32 200.32-200.32 200.32 89.6 200.32 200.32-89.6 200.32-200.32 200.32z m0-386.56c-102.4 0-186.24 83.2-186.24 186.24s83.2 186.24 186.24 186.24c102.4 0 186.24-83.2 186.24-186.24s-83.2-186.24-186.24-186.24z" fill="#ffffff" p-id="2353" data-spm-anchor-id="a313x.7781069.0.i3" class="selected"></path><path d="M545.28 787.84c-96 0-174.72-78.08-174.72-174.72s78.08-174.72 174.72-174.72 174.72 78.08 174.72 174.72-78.08 174.72-174.72 174.72z m0-335.36c-88.32 0-160 71.68-160 160s71.68 160 160 160 160-71.68 160-160-71.68-160-160-160z" fill="#ffffff" p-id="2354" data-spm-anchor-id="a313x.7781069.0.i4" class="selected"></path><path d="M545.28 742.4C474.24 742.4 416 684.16 416 613.12s58.24-129.28 129.28-129.28c71.68 0 129.28 58.24 129.28 129.28s-57.6 129.28-129.28 129.28z m0-243.84c-63.36 0-114.56 51.2-114.56 114.56s51.2 114.56 114.56 114.56c63.36 0 114.56-51.2 114.56-114.56s-51.2-114.56-114.56-114.56z" fill="#00ABE0" p-id="2355"></path><path d="M633.6 620.8c-4.48 0-7.68-3.2-7.68-7.68 0-44.16-35.84-80.64-80.64-80.64-4.48 0-7.68-3.2-7.68-7.68s3.2-7.68 7.68-7.68c52.48 0 96 42.88 96 95.36 0 4.48-3.2 8.32-7.68 8.32z" fill="#00ABE0" p-id="2356"></path><path d="M840.32 299.52m-18.56 0a18.56 18.56 0 1 0 37.12 0 18.56 18.56 0 1 0-37.12 0Z" fill="#00ABE0" p-id="2357"></path><path d="M908.8 296.32c-0.64-1.28-8.32-16.64-28.8-26.88l4.48-4.48c1.28-1.28 1.92-3.2 1.92-5.12 0-1.92-0.64-3.84-1.92-5.12-1.28-1.28-3.2-1.92-5.12-1.92-1.92 0-3.84 0.64-5.12 1.92l-8.96 8.96c-5.12-1.28-10.88-2.56-17.92-2.56v-8.32c0-3.84-3.2-7.04-7.04-7.04-3.84 0-7.04 3.2-7.04 7.04v8.32c-6.4 0.64-12.16 1.28-17.92 2.56l-8.96-8.96c-1.28-1.28-3.2-1.92-5.12-1.92s-3.84 0.64-5.12 1.92c-2.56 2.56-2.56 7.68 0 10.24l4.48 4.48c-20.48 10.24-28.16 25.6-28.8 26.24-1.28 1.92-0.64 4.48 0 6.4 0.64 0.64 8.96 16 28.8 25.6l-4.48 4.48c-1.28 1.28-1.92 3.2-1.92 5.12 0 1.92 0.64 3.84 1.92 5.12 1.28 1.28 3.2 1.92 5.12 1.92 1.92 0 3.84-0.64 5.12-1.92l8.96-8.96c5.12 1.28 10.88 2.56 17.28 3.2V345.6c0 3.84 3.2 7.04 7.04 7.04 3.84 0 7.04-3.2 7.04-7.04v-8.32c6.4-0.64 12.16-1.28 17.28-3.2l8.96 8.96c1.28 1.28 3.2 1.92 5.12 1.92 1.92 0 3.84-0.64 5.12-1.92 1.28-1.28 1.92-3.2 1.92-5.12 0-1.92-0.64-3.84-1.92-5.12l-4.48-4.48c19.84-10.24 28.16-24.96 28.8-25.6 2.56-1.92 2.56-4.48 1.28-6.4z m-68.48 26.88c-9.6 0-17.28-1.28-23.68-3.84h-0.64c-16-5.12-24.96-14.72-28.8-19.84 5.12-7.04 20.48-23.68 53.12-23.68 9.6 0 17.28 1.28 24.32 3.2 16.64 5.12 24.96 14.72 28.8 19.84-5.12 7.04-21.12 24.32-53.12 24.32z" fill="#00ABE0" p-id="2358"></path><path d="M717.44 218.24h15.36v155.52h-15.36z" fill="#ffffff" p-id="2359" data-spm-anchor-id="a313x.7781069.0.i6" class="selected"></path></svg>